<?xml version="1.0" encoding="UTF-8"?>
<!DOCTYPE svg PUBLIC "-//W3C//DTD SVG 1.1//EN" "http://www.w3.org/Graphics/SVG/1.1/DTD/svg11.dtd">
<!-- Creator: CorelDRAW 2020 (64-Bit) -->
<svg xmlns="http://www.w3.org/2000/svg" xml:space="preserve" width="86px" height="68px" version="1.1" style="shape-rendering:geometricPrecision; text-rendering:geometricPrecision; image-rendering:optimizeQuality; fill-rule:evenodd; clip-rule:evenodd"
viewBox="0 0 86 68"
 xmlns:xlink="http://www.w3.org/1999/xlink"
 xmlns:xodm="http://www.corel.com/coreldraw/odm/2003">
 <defs>
  <style type="text/css">
   <![CDATA[
    .fil2 {fill:#FEFEFE}
    .fil0 {fill:#E6E7E8}
    .fil4 {fill:#1D1D1B}
    .fil6 {fill:#D30802}
    .fil3 {fill:#FA0C00}
    .fil1 {fill:#FEFEFE}
    .fil5 {fill:white}
   ]]>
  </style>
 </defs>
 <g id="Capa_x0020_1">
  <metadata id="CorelCorpID_0Corel-Layer"/>
  <path class="fil0" d="M37.74 36.57l0.85 6.56 -17.31 -0.1c1.1,-4.06 10.64,-6.68 16.46,-6.46zm3.48 0.11c4.96,-0.22 15.49,2.83 17.8,7.29 -4.27,-0.16 -8.58,-0.36 -12.85,-0.45 -2.57,-0.05 -5.42,1.49 -4.95,-6.84zm-31.77 22.84c0.54,-5.73 2.29,-10.25 8.63,-10.13 5.7,0.1 8.29,4.32 8.17,10.11l32.91 -0.17c-0.75,-13.26 17.21,-13.52 16.62,0.18l5.63 -0.3c4.56,-16.59 -11.18,-13.25 -17.07,-15.96 -1.05,-0.48 -3.63,-2.69 -5.15,-3.69 -5.15,-3.4 -12.85,-5.35 -19.22,-5.85 -16.6,-1.33 -18.96,5.9 -25.82,8.11 -5.21,1.68 -9.1,1.24 -9.93,7.22 -0.9,6.44 -1.52,10.82 5.23,10.48z"/>
  <path class="fil0" d="M11.5 58.81c1.09,8.05 13.99,6.77 12.81,-2.03 -1.07,-7.92 -14.04,-7.04 -12.81,2.03z"/>
  <path class="fil0" d="M61.05 58.81c1.02,7.5 13.96,6.9 12.8,-2.05 -1.02,-7.85 -14.01,-6.76 -12.8,2.05z"/>
  <path class="fil1" d="M46.17 43.52c4.27,0.09 8.58,0.29 12.85,0.45 -2.31,-4.46 -12.84,-7.51 -17.8,-7.29 -0.47,8.33 2.38,6.79 4.95,6.84z"/>
  <path class="fil1" d="M37.74 36.57c-5.82,-0.22 -15.36,2.4 -16.46,6.46l17.31 0.1 -0.85 -6.56z"/>
  <path class="fil2" d="M14.19 58.37c0.63,4.68 8.12,3.94 7.43,-1.17 -0.62,-4.6 -8.14,-4.09 -7.43,1.17z"/>
  <path class="fil2" d="M63.73 58.34c0.63,4.67 8.12,3.93 7.43,-1.18 -0.62,-4.59 -8.14,-4.09 -7.43,1.18z"/>
  <g id="_2649066482048">
   <path class="fil3" d="M43.63 30.63c-0.34,2.07 -1.81,3.01 -4.17,2.7 -2.07,-0.26 -3.08,-1.95 -2.74,-4.23 0.63,-4.12 7.76,-3.68 6.91,1.53zm0.85 0.38l1.9 -0.09c0.3,0.54 0.18,0.9 0.89,1.08 0.8,0.19 1.2,-0.11 1.24,-0.81 -0.5,-0.83 -1.93,-0.75 -2.75,-1.2 -1.87,-1.01 -1.46,-3.99 2.45,-3.57 1.28,0.14 2.01,0.69 2.13,1.98l-1.85 0.11c-0.24,-0.33 -0.71,-1.33 -1.61,-0.74 -1.84,1.2 4.13,0.48 3.67,3.66 -0.37,2.56 -5.91,2.94 -6.07,-0.42zm-14.7 0.01l1.93 -0.12c0.18,0.66 0.24,1.03 0.96,1.13 0.87,0.12 1.18,-0.2 1.11,-1.02 -0.71,-0.55 -1.95,-0.56 -2.83,-1.06 -1.73,-1.01 -1.29,-3.95 2.54,-3.54 1.33,0.15 2.01,0.67 2.13,2l-1.85 0.1c-0.21,-0.32 -0.22,-0.55 -0.53,-0.72 -0.76,-0.44 -2.73,0.37 0.08,1.05 1.47,0.36 2.77,0.89 2.53,2.6 -0.35,2.54 -5.92,2.93 -6.07,-0.42zm-3.17 7.93l27.42 0 0.08 -0.55c0,-3.11 -0.01,-6.21 0,-9.31 0.01,-7.98 -5.93,-14.39 -14.03,-14.21 -5.46,0.12 -9.83,3.43 -11.7,6.99 -1.34,2.56 -1.78,4.24 -1.77,7.64 0,3.14 -0.01,6.29 0,9.44z"/>
   <path class="fil4" d="M54.14 39.53l-27.57 0.01c-2.41,0.04 -2.9,1.77 -2.77,3.71 0.04,0.53 -0.06,0.34 0.18,0.68 0.56,0.47 6.78,0.22 8.11,0.22 3.91,0 23.79,0.26 24.78,-0.22 0.25,-2.62 -0.16,-4.24 -2.73,-4.4z"/>
   <path class="fil5" d="M39.7 28.09c2.16,-0.89 2.41,2.99 1.13,3.58 -1.12,0.51 -1.9,-0.22 -2.03,-1.19 -0.15,-1.1 -0.03,-2.01 0.9,-2.39zm3.93 2.54c0.85,-5.21 -6.28,-5.65 -6.91,-1.53 -0.34,2.28 0.67,3.97 2.74,4.23 2.36,0.31 3.83,-0.63 4.17,-2.7z"/>
   <path class="fil5" d="M29.78 31.02c0.15,3.35 5.72,2.96 6.07,0.42 0.24,-1.71 -1.06,-2.24 -2.53,-2.6 -2.81,-0.68 -0.84,-1.49 -0.08,-1.05 0.31,0.17 0.32,0.4 0.53,0.72l1.85 -0.1c-0.12,-1.33 -0.8,-1.85 -2.13,-2 -3.83,-0.41 -4.27,2.53 -2.54,3.54 0.88,0.5 2.12,0.51 2.83,1.06 0.07,0.82 -0.24,1.14 -1.11,1.02 -0.72,-0.1 -0.78,-0.47 -0.96,-1.13l-1.93 0.12z"/>
   <path class="fil5" d="M44.48 31.01c0.16,3.36 5.7,2.98 6.07,0.42 0.46,-3.18 -5.51,-2.46 -3.67,-3.66 0.9,-0.59 1.37,0.41 1.61,0.74l1.85 -0.11c-0.12,-1.29 -0.85,-1.84 -2.13,-1.98 -3.91,-0.42 -4.32,2.56 -2.45,3.57 0.82,0.45 2.25,0.37 2.75,1.2 -0.04,0.7 -0.44,1 -1.24,0.81 -0.71,-0.18 -0.59,-0.54 -0.89,-1.08l-1.9 0.09z"/>
   <path class="fil3" d="M60.64 30.7c-0.84,0.18 -1.48,1.08 -0.94,2.01 0.47,0.8 1.43,0.67 2.52,0.67 1.49,0 5.31,0.19 6.52,-0.03 0.8,-0.15 1.5,-1.03 0.93,-2.05 -0.43,-0.77 -1.44,-0.65 -2.55,-0.65 -1.35,0 -5.49,-0.17 -6.48,0.05z"/>
   <path class="fil3" d="M11.72 30.26c-0.89,0.35 -1.18,1.5 -0.52,2.2 0.55,0.58 1.85,0.41 2.82,0.41 1.06,0 5.68,0.14 6.34,-0.1 0.79,-0.3 1.18,-1.39 0.53,-2.15 -0.58,-0.67 -1.85,-0.47 -2.81,-0.47 -1.16,0 -5.64,-0.18 -6.36,0.11z"/>
   <path class="fil3" d="M41.98 11.01l0 -7.15c0,-1.75 -1.81,-2.08 -2.49,-1.01 -0.39,0.61 -0.39,8.48 -0.06,9.08 0.65,1.16 2.55,0.84 2.55,-0.92z"/>
   <path class="fil3" d="M54.29 6.24c-0.96,0.37 -1.21,1.29 -1.76,2.23l-2.92 5.07c-0.46,1.11 0.48,2.3 1.71,1.85 0.73,-0.27 1.25,-1.52 1.67,-2.27 0.46,-0.84 0.96,-1.69 1.49,-2.57 0.34,-0.59 1.2,-1.92 1.42,-2.5 0.44,-1.14 -0.58,-2.2 -1.61,-1.81z"/>
   <path class="fil3" d="M15.43 16.34c-1.04,0.63 -0.85,1.81 0.11,2.39l4.98 2.87c0.7,0.4 1.91,1.39 2.87,0.88 1.04,-0.56 0.83,-1.85 -0.07,-2.42l-4.97 -2.87c-0.73,-0.43 -1.92,-1.46 -2.92,-0.85z"/>
   <path class="fil3" d="M25.86 6.15c-0.06,0.04 -0.84,0.15 -0.67,1.35 0.06,0.48 0.42,0.93 0.66,1.35l2.87 4.97c0.43,0.76 1.07,1.96 2.34,1.19 1.5,-0.91 -0.39,-3.21 -1.47,-5.14 -0.48,-0.85 -0.97,-1.64 -1.44,-2.48 -0.41,-0.75 -1.02,-2.03 -2.29,-1.24z"/>
   <path class="fil3" d="M64.3 16.7l-5.02 2.86c-0.69,0.42 -2.01,0.96 -2.28,1.64 -0.45,1.15 0.57,2.18 1.77,1.77l4.99 -2.85c0.69,-0.4 2.05,-0.95 2.33,-1.61 0.52,-1.26 -0.66,-2.33 -1.79,-1.81z"/>
   <polygon class="fil6" points="26.61,38.95 26.57,39.54 54.14,39.53 54.11,38.4 54.03,38.95 "/>
   <path class="fil3" d="M39.7 28.09c-0.93,0.38 -1.05,1.29 -0.9,2.39 0.13,0.97 0.91,1.7 2.03,1.19 1.28,-0.59 1.03,-4.47 -1.13,-3.58z"/>
  </g>
 </g>
</svg>
