<?xml version="1.0" encoding="UTF-8"?>
<!DOCTYPE svg PUBLIC "-//W3C//DTD SVG 1.1//EN" "http://www.w3.org/Graphics/SVG/1.1/DTD/svg11.dtd">
<!-- Creator: CorelDRAW 2020 (64-Bit) -->
<svg xmlns="http://www.w3.org/2000/svg" xml:space="preserve" width="86px" height="68px" version="1.1" style="shape-rendering:geometricPrecision; text-rendering:geometricPrecision; image-rendering:optimizeQuality; fill-rule:evenodd; clip-rule:evenodd"
viewBox="0 0 86 68"
 xmlns:xlink="http://www.w3.org/1999/xlink"
 xmlns:xodm="http://www.corel.com/coreldraw/odm/2003">
 <defs>
  <style type="text/css">
   <![CDATA[
    .fil1 {fill:#FEFEFE}
    .fil0 {fill:#D2D3D5}
    .fil4 {fill:#6982AB}
    .fil2 {fill:#E55952}
    .fil3 {fill:white}
   ]]>
  </style>
 </defs>
 <g id="Capa_x0020_1">
  <metadata id="CorelCorpID_0Corel-Layer"/>
  <path class="fil0" d="M47.23 50.75c0.21,-0.33 0.09,-19.2 0.1,-22.27 0,-3.34 -1.99,-2.86 -5.87,-2.86l-33.61 0c-1.83,0 -2.73,-0.14 -3.74,0.76 -0.95,0.83 -0.69,1.99 -0.69,3.26l0 18.61c0,2.43 -0.36,2.89 1.19,2.88l38.35 0c1.12,0 3.84,0.3 4.27,-0.38z"/>
  <path class="fil0" d="M56.81 42.01c0.65,0 2.2,-0.13 2.52,0.18 0.3,0.3 0.11,0.65 -0.25,0.74 -0.27,0.08 -1.01,0.05 -1.34,0.04 -0.84,0 -1.99,0.1 -2.56,-0.16 -0.33,-0.95 0.61,-0.8 1.63,-0.8zm18.54 -1.67c-0.68,0.35 -2.38,0.18 -3.41,0.18l-14.66 0c-1.59,0 -2.13,0.14 -2.12,-1.22 0.06,-5.99 -0.78,-5.85 3.5,-5.85 1.23,0 2.47,0 3.7,0 8.47,0 6.6,-0.7 10.29,3.42 0.52,0.59 2.83,2.93 2.7,3.47zm-18.92 17.54c1.78,-7.52 12.41,-8.47 17.12,-4.8 2.15,1.68 2.57,2.43 3.29,4.8 1.14,0.08 2.59,0.02 3.76,0.02 3.9,0 3.64,0.32 3.64,-3.03 0,-1.35 -0.61,-1.2 -2.15,-1.24 -0.08,-2.99 0,-6.05 0,-9.05 0,-3.64 -0.56,-4.53 -2.71,-6.83 -1.62,-1.73 -3.27,-3.45 -4.82,-5.22 -2.42,-2.77 -2.94,-2.53 -8.28,-2.58 -3.75,-0.05 -7.53,-0.12 -11.31,-0.18 -0.93,-0.01 -1.96,-0.11 -2.69,0.2 -0.56,0.24 -1.09,0.66 -1.23,1.29 -0.19,0.86 -0.09,20.67 -0.07,22.32 -1.03,0.22 -19.36,-0.02 -22.44,0.07 0.33,0.63 1.83,1.34 2.45,4.25l25.44 -0.02z"/>
  <path class="fil0" d="M66.14 56.34c1.96,-0.24 3.63,0.87 3.87,2.2 0.29,1.65 -1.14,2.87 -2.93,3.04 -4.46,0.43 -5.4,-4.69 -0.94,-5.24zm-7.45 3.45c0.54,3.07 4.28,5.83 9.03,5.31 3.96,-0.43 7.5,-3.31 6.85,-6.98 -0.56,-3.11 -4.32,-5.8 -8.98,-5.32 -4.01,0.42 -7.54,3.31 -6.9,6.99z"/>
  <path class="fil0" d="M20.21 56.35c2.04,-0.3 3.63,0.81 3.94,2.09 0.39,1.57 -0.97,2.84 -2.6,3.1 -4.52,0.73 -5.91,-4.5 -1.34,-5.19zm-7.35 3.44c0.54,3.08 4.27,5.76 8.88,5.32 4.09,-0.39 7.57,-3.26 7,-6.92 -0.48,-3.12 -4.25,-5.86 -9,-5.39 -3.97,0.4 -7.52,3.34 -6.88,6.99z"/>
  <path class="fil1" d="M75.35 40.34c0.13,-0.54 -2.18,-2.88 -2.7,-3.47 -3.69,-4.12 -1.82,-3.42 -10.29,-3.42 -1.23,0 -2.47,0 -3.7,0 -4.28,0 -3.44,-0.14 -3.5,5.85 -0.01,1.36 0.53,1.22 2.12,1.22l14.66 0c1.03,0 2.73,0.17 3.41,-0.18z"/>
  <path class="fil0" d="M10.59 57.89c0.74,-3.03 2.14,-3.6 2.45,-4.25l-1.09 0c-9.22,0 -8.63,-0.51 -8.63,2.12 -0.01,1.31 -0.11,2.14 1.76,2.14l5.51 -0.01z"/>
  <path class="fil1" d="M20.21 56.35c-4.57,0.69 -3.18,5.92 1.34,5.19 1.63,-0.26 2.99,-1.53 2.6,-3.1 -0.31,-1.28 -1.9,-2.39 -3.94,-2.09z"/>
  <path class="fil1" d="M66.14 56.34c-4.46,0.55 -3.52,5.67 0.94,5.24 1.79,-0.17 3.22,-1.39 2.93,-3.04 -0.24,-1.33 -1.91,-2.44 -3.87,-2.2z"/>
  <path class="fil0" d="M55.18 42.81c0.57,0.26 1.72,0.16 2.56,0.16 0.33,0.01 1.07,0.04 1.34,-0.04 0.36,-0.09 0.55,-0.44 0.25,-0.74 -0.32,-0.31 -1.87,-0.18 -2.52,-0.18 -1.02,0 -1.96,-0.15 -1.63,0.8z"/>
  <g id="_2648992196176">
   <path class="fil2" d="M39.33 26.31c0.2,-0.47 1.87,-1.83 2.29,-2.4 0.55,-0.42 1.56,-1.69 2.01,-1.92 0.18,-0.35 0.63,-0.68 0.94,-0.99 0.25,-0.26 0.68,-0.74 0.92,-0.87 0.14,-0.25 1.3,-1.42 1.55,-1.54 0.08,-0.16 1.46,-1.63 1.76,-1.76 0.06,-0.13 3.22,-3.39 3.71,-3.77 0.39,0.17 0.71,0.74 0.94,1.05 7.72,10.59 0.35,25.52 -12.51,26.06 -2.42,0.1 -4.74,-0.33 -6.71,-1.1 -1.2,-0.46 -4.13,-2.02 -4.77,-2.92l2.46 -2.5c0.83,-0.84 7.05,-7.15 7.41,-7.34zm7.16 -10.58c-0.24,0.37 -1.5,1.61 -1.88,1.9 -0.19,0.25 -1.52,1.62 -1.75,1.69 -0.21,0.43 -0.72,0.81 -1.01,1.11 -0.36,0.36 -0.66,0.74 -1.08,1.01 -0.14,0.27 -2.48,2.61 -2.77,2.73 -0.17,0.44 -1.43,1.53 -1.76,1.87l-1.8 1.73c-0.05,0.11 -5.8,6.01 -6.62,6.68 -0.48,-0.22 -1.41,-1.7 -1.72,-2.24 -4.5,-7.7 -2.31,-16.91 4.62,-21.89 4.34,-3.12 10.35,-3.88 15.38,-1.89 0.92,0.36 1.79,0.79 2.58,1.28 0.52,0.31 1.91,1.22 2.2,1.67l-4.39 4.35zm-7.87 -10.65c-2.98,0.36 -4.86,0.84 -7.25,2.12 -2.39,1.28 -3.77,2.59 -5.22,4.13 -3.26,3.44 -5.07,8.87 -4.66,14 0.78,9.73 9.38,17.98 20.22,17.11 9.83,-0.78 17.95,-9.38 17.13,-20.26 -0.38,-5.12 -2.74,-9.15 -6.24,-12.44 -3.34,-3.15 -9.09,-5.27 -13.98,-4.66z"/>
   <path class="fil3" d="M39.62 29.13c1.6,-0.38 2.97,0.76 3.26,2.08 0.37,1.68 -0.74,3.03 -2.09,3.33 -3.53,0.79 -4.9,-4.53 -1.17,-5.41zm9.18 -12.3c1.27,0.53 3.06,2.03 4.02,2.98 0.64,0.62 0.03,1 -0.35,1.37 -1.03,1.01 -0.64,0.74 -2.66,-0.85 -0.71,-0.56 -1.9,-1.38 -2.77,-1.74 -0.25,0.12 -1.41,1.29 -1.55,1.54 1.61,0.73 2.9,1.54 4.16,2.76 0.68,0.66 0.08,1.05 -0.3,1.43 -0.62,0.61 -0.79,0.83 -1.38,0.25 -0.34,-0.33 -0.85,-0.74 -1.27,-1.04 -0.84,-0.61 -1.98,-1.2 -3.07,-1.54 -0.45,0.23 -1.46,1.5 -2.01,1.92 0.35,0.3 1.9,0.35 3.32,1.37 1.81,1.29 2,1.47 1.02,2.43 -0.45,0.45 -0.75,0.91 -1.42,0.3 -1.44,-1.33 -3.07,-1.91 -5.21,-1.7 -0.36,0.19 -6.58,6.5 -7.41,7.34l-2.46 2.5c0.64,0.9 3.57,2.46 4.77,2.92 1.97,0.77 4.29,1.2 6.71,1.1 12.86,-0.54 20.23,-15.47 12.51,-26.06 -0.23,-0.31 -0.55,-0.88 -0.94,-1.05 -0.49,0.38 -3.65,3.64 -3.71,3.77z"/>
   <path class="fil3" d="M34.44 27.77c-0.29,-0.28 -0.96,-0.76 -0.48,-1.34 0.22,-0.26 0.82,-0.7 1.13,-0.93 0.63,-0.47 1.96,-1.2 2.91,-1.33 0.29,-0.12 2.63,-2.46 2.77,-2.73 -2.44,-0.03 -4.63,0.49 -6.41,1.61 -0.48,0.3 -0.75,0.5 -1.16,0.81 -1.31,0.99 -1.07,1.59 -2.35,0.33 -0.76,-0.75 -0.71,-0.96 0.89,-2.22 1.15,-0.91 2.49,-1.67 3.92,-2.16 1.98,-0.67 5.02,-1.09 7.2,-0.49 0.23,-0.07 1.56,-1.44 1.75,-1.69 -2.05,-0.4 -3.29,-0.77 -5.64,-0.58 -3.57,0.29 -7.27,1.88 -9.69,4.35 -0.36,0.36 -0.66,0.52 -1.08,0.13 -0.21,-0.2 -0.59,-0.56 -0.77,-0.77 -0.41,-0.48 -0.11,-0.75 0.18,-1.03 1.93,-1.92 4.54,-3.63 7.99,-4.53 1.8,-0.47 3.67,-0.65 5.66,-0.55 2.89,0.14 3.35,0.69 5.23,1.08l4.39 -4.35c-0.29,-0.45 -1.68,-1.36 -2.2,-1.67 -0.79,-0.49 -1.66,-0.92 -2.58,-1.28 -5.03,-1.99 -11.04,-1.23 -15.38,1.89 -6.93,4.98 -9.12,14.19 -4.62,21.89 0.31,0.54 1.24,2.02 1.72,2.24 0.82,-0.67 6.57,-6.57 6.62,-6.68z"/>
   <path class="fil4" d="M44.61 17.63c0.38,-0.29 1.64,-1.53 1.88,-1.9 -1.88,-0.39 -2.34,-0.94 -5.23,-1.08 -1.99,-0.1 -3.86,0.08 -5.66,0.55 -3.45,0.9 -6.06,2.61 -7.99,4.53 -0.29,0.28 -0.59,0.55 -0.18,1.03 0.18,0.21 0.56,0.57 0.77,0.77 0.42,0.39 0.72,0.23 1.08,-0.13 2.42,-2.47 6.12,-4.06 9.69,-4.35 2.35,-0.19 3.59,0.18 5.64,0.58z"/>
   <path class="fil4" d="M40.77 21.44c0.42,-0.27 0.72,-0.65 1.08,-1.01 0.29,-0.3 0.8,-0.68 1.01,-1.11 -2.18,-0.6 -5.22,-0.18 -7.2,0.49 -1.43,0.49 -2.77,1.25 -3.92,2.16 -1.6,1.26 -1.65,1.47 -0.89,2.22 1.28,1.26 1.04,0.66 2.35,-0.33 0.41,-0.31 0.68,-0.51 1.16,-0.81 1.78,-1.12 3.97,-1.64 6.41,-1.61z"/>
   <path class="fil4" d="M39.62 29.13c-3.73,0.88 -2.36,6.2 1.17,5.41 1.35,-0.3 2.46,-1.65 2.09,-3.33 -0.29,-1.32 -1.66,-2.46 -3.26,-2.08z"/>
   <path class="fil4" d="M39.33 26.31c2.14,-0.21 3.77,0.37 5.21,1.7 0.67,0.61 0.97,0.15 1.42,-0.3 0.98,-0.96 0.79,-1.14 -1.02,-2.43 -1.42,-1.02 -2.97,-1.07 -3.32,-1.37 -0.42,0.57 -2.09,1.93 -2.29,2.4z"/>
   <path class="fil4" d="M43.63 21.99c1.09,0.34 2.23,0.93 3.07,1.54 0.42,0.3 0.93,0.71 1.27,1.04 0.59,0.58 0.76,0.36 1.38,-0.25 0.38,-0.38 0.98,-0.77 0.3,-1.43 -1.26,-1.22 -2.55,-2.03 -4.16,-2.76 -0.24,0.13 -0.67,0.61 -0.92,0.87 -0.31,0.31 -0.76,0.64 -0.94,0.99z"/>
   <path class="fil4" d="M47.04 18.59c0.87,0.36 2.06,1.18 2.77,1.74 2.02,1.59 1.63,1.86 2.66,0.85 0.38,-0.37 0.99,-0.75 0.35,-1.37 -0.96,-0.95 -2.75,-2.45 -4.02,-2.98 -0.3,0.13 -1.68,1.6 -1.76,1.76z"/>
   <path class="fil4" d="M34.44 27.77l1.8 -1.73c0.33,-0.34 1.59,-1.43 1.76,-1.87 -0.95,0.13 -2.28,0.86 -2.91,1.33 -0.31,0.23 -0.91,0.67 -1.13,0.93 -0.48,0.58 0.19,1.06 0.48,1.34z"/>
  </g>
 </g>
</svg>
