<?xml version="1.0" encoding="UTF-8"?>
<!DOCTYPE svg PUBLIC "-//W3C//DTD SVG 1.1//EN" "http://www.w3.org/Graphics/SVG/1.1/DTD/svg11.dtd">
<!-- Creator: CorelDRAW 2020 (64-Bit) -->
<svg xmlns="http://www.w3.org/2000/svg" xml:space="preserve" width="86px" height="68px" version="1.1" style="shape-rendering:geometricPrecision; text-rendering:geometricPrecision; image-rendering:optimizeQuality; fill-rule:evenodd; clip-rule:evenodd"
viewBox="0 0 86 68"
 xmlns:xlink="http://www.w3.org/1999/xlink"
 xmlns:xodm="http://www.corel.com/coreldraw/odm/2003">
 <defs>
  <style type="text/css">
   <![CDATA[
    .str0 {stroke:#373435;stroke-width:1.25;stroke-miterlimit:22.9256}
    .str1 {stroke:#373435;stroke-width:2.36;stroke-miterlimit:22.9256}
    .fil3 {fill:#FFF212}
    .fil0 {fill:#00A859}
    .fil1 {fill:black}
    .fil2 {fill:#FEFEFE}
   ]]>
  </style>
 </defs>
 <g id="Capa_x0020_1">
  <metadata id="CorelCorpID_0Corel-Layer"/>
  <path class="fil0" d="M47.23 50.75c0.21,-0.33 0.09,-19.2 0.1,-22.27 0,-3.34 -1.99,-2.86 -5.87,-2.86l-33.61 0c-1.83,0 -2.73,-0.14 -3.74,0.76 -0.95,0.83 -0.69,1.99 -0.69,3.26l0 18.61c0,2.43 -0.36,2.89 1.19,2.88l38.35 0c1.12,0 3.84,0.3 4.27,-0.38z"/>
  <path class="fil0" d="M56.81 42.01c0.65,0 2.2,-0.13 2.52,0.18 0.3,0.3 0.11,0.65 -0.25,0.74 -0.27,0.08 -1.01,0.05 -1.34,0.04 -0.84,0 -1.99,0.1 -2.56,-0.16 -0.33,-0.95 0.61,-0.8 1.63,-0.8zm18.54 -1.67c-0.68,0.35 -2.38,0.18 -3.41,0.18l-14.66 0c-1.59,0 -2.13,0.14 -2.12,-1.22 0.06,-5.99 -0.78,-5.85 3.5,-5.85 1.23,0 2.47,0 3.7,0 8.47,0 6.6,-0.7 10.29,3.42 0.52,0.59 2.83,2.93 2.7,3.47zm-18.92 17.54c1.78,-7.52 12.41,-8.47 17.12,-4.8 2.15,1.68 2.57,2.43 3.29,4.8 1.14,0.08 2.59,0.02 3.76,0.02 3.9,0 3.64,0.32 3.64,-3.03 0,-1.35 -0.61,-1.2 -2.15,-1.24 -0.08,-2.99 0,-6.05 0,-9.05 0,-3.64 -0.56,-4.53 -2.71,-6.83 -1.62,-1.73 -3.27,-3.45 -4.82,-5.22 -2.42,-2.77 -2.94,-2.53 -8.28,-2.58 -3.75,-0.05 -7.53,-0.12 -11.31,-0.18 -0.93,-0.01 -1.96,-0.11 -2.69,0.2 -0.56,0.24 -1.09,0.66 -1.23,1.29 -0.19,0.86 -0.09,20.67 -0.07,22.32 -1.03,0.22 -19.36,-0.02 -22.44,0.07 0.33,0.63 1.83,1.34 2.45,4.25l25.44 -0.02z"/>
  <path class="fil1" d="M66.14 56.34c1.96,-0.24 3.63,0.87 3.87,2.2 0.29,1.65 -1.14,2.87 -2.93,3.04 -4.46,0.43 -5.4,-4.69 -0.94,-5.24zm-7.45 3.45c0.54,3.07 4.28,5.83 9.03,5.31 3.96,-0.43 7.5,-3.31 6.85,-6.98 -0.56,-3.11 -4.32,-5.8 -8.98,-5.32 -4.01,0.42 -7.54,3.31 -6.9,6.99z"/>
  <path class="fil1" d="M20.21 56.35c2.04,-0.3 3.63,0.81 3.94,2.09 0.39,1.57 -0.97,2.84 -2.6,3.1 -4.52,0.73 -5.91,-4.5 -1.34,-5.19zm-7.35 3.44c0.54,3.08 4.27,5.76 8.88,5.32 4.09,-0.39 7.57,-3.26 7,-6.92 -0.48,-3.12 -4.25,-5.86 -9,-5.39 -3.97,0.4 -7.52,3.34 -6.88,6.99z"/>
  <path class="fil2" d="M75.35 40.34c0.13,-0.54 -2.18,-2.88 -2.7,-3.47 -3.69,-4.12 -1.82,-3.42 -10.29,-3.42 -1.23,0 -2.47,0 -3.7,0 -4.28,0 -3.44,-0.14 -3.5,5.85 -0.01,1.36 0.53,1.22 2.12,1.22l14.66 0c1.03,0 2.73,0.17 3.41,-0.18z"/>
  <path class="fil0" d="M10.59 57.89c0.74,-3.03 2.14,-3.6 2.45,-4.25l-1.09 0c-9.22,0 -8.63,-0.51 -8.63,2.12 -0.01,1.31 -0.11,2.14 1.76,2.14l5.51 -0.01z"/>
  <path class="fil2" d="M20.21 56.35c-4.57,0.69 -3.18,5.92 1.34,5.19 1.63,-0.26 2.99,-1.53 2.6,-3.1 -0.31,-1.28 -1.9,-2.39 -3.94,-2.09z"/>
  <path class="fil2" d="M66.14 56.34c-4.46,0.55 -3.52,5.67 0.94,5.24 1.79,-0.17 3.22,-1.39 2.93,-3.04 -0.24,-1.33 -1.91,-2.44 -3.87,-2.2z"/>
  <path class="fil2" d="M55.18 42.81c0.57,0.26 1.72,0.16 2.56,0.16 0.33,0.01 1.07,0.04 1.34,-0.04 0.36,-0.09 0.55,-0.44 0.25,-0.74 -0.32,-0.31 -1.87,-0.18 -2.52,-0.18 -1.02,0 -1.96,-0.15 -1.63,0.8z"/>
  <ellipse class="fil3 str0" cx="28.83" cy="18.85" rx="16.76" ry="15.27"/>
  <rect class="fil3 str1" x="23.25" y="9.67" width="2.34" height="17.73"/>
  <rect class="fil3 str1" x="31.82" y="9.67" width="2.34" height="17.73"/>
 </g>
</svg>
