<?xml version="1.0" encoding="UTF-8"?>
<!DOCTYPE svg PUBLIC "-//W3C//DTD SVG 1.1//EN" "http://www.w3.org/Graphics/SVG/1.1/DTD/svg11.dtd">
<!-- Creator: CorelDRAW 2020 (64-Bit) -->
<svg xmlns="http://www.w3.org/2000/svg" xml:space="preserve" width="86px" height="68px" version="1.1" style="shape-rendering:geometricPrecision; text-rendering:geometricPrecision; image-rendering:optimizeQuality; fill-rule:evenodd; clip-rule:evenodd"
viewBox="0 0 86 68"
 xmlns:xlink="http://www.w3.org/1999/xlink"
 xmlns:xodm="http://www.corel.com/coreldraw/odm/2003">
 <defs>
  <style type="text/css">
   <![CDATA[
    .fil0 {fill:#A9ABAE}
    .fil3 {fill:#6982AB}
    .fil1 {fill:#E55952}
    .fil2 {fill:white}
   ]]>
  </style>
 </defs>
 <g id="Capa_x0020_1">
  <metadata id="CorelCorpID_0Corel-Layer"/>
  <path class="fil0" d="M26.6 55.51c-1.45,4.79 -7.41,8.21 -12.43,4.43 -4.68,-3.52 -4.48,-10.15 0.2,-13.15l-0.34 1.87 2.45 1.22c-5.91,7.8 6,10.61 6.36,3.52 1.5,0.59 2.81,1.03 3.76,2.11zm40.28 -9.04c10.4,-1.95 12.92,10.81 5.36,14.11 -5.84,2.56 -12.03,-2.69 -10.46,-8.83 0.55,-2.17 1.73,-2.89 2.9,-4.28 1.02,0.82 1.12,1.53 1.66,2.78 -0.77,1.88 -2.27,3.54 -0.6,5.87 4.34,6.02 13.35,-5.01 2.32,-6.66l-1.18 -2.99zm-47.49 -1.03c3.4,0.15 4.49,1.32 5.92,3.48l-5.92 -3.48zm36.48 -19.08c-0.34,-4.75 1.47,-6.78 -2.16,-7.3l-0.44 3.78 1.86 0.3 -0.32 3.83c-1.8,0.61 -1.71,-0.18 -2.77,1.02 0.99,1.29 1.25,0.64 2.58,1.62 0.79,0.59 1.28,1.28 1.48,2.02 -2.21,0.91 -7.58,-2.9 -11.42,-1.87 -5.69,1.52 -6.34,4.47 -7.54,7 -14.54,-2.15 -10.32,-1.31 -12.7,-4.9l-14.6 -1.84 2.91 3.84c-1.38,0.42 -3.27,0.69 -4.23,1.42l1.78 0.8c-1.17,1.72 -2.66,3.76 -3.71,5.55 9.16,-9.67 7.9,-8.01 14.72,-3.81 2.85,1.75 5.22,3.15 8.06,4.9 2.83,1.74 5.3,2.31 6.49,5.84 -2.25,0.27 -2.34,-0.08 -4.31,-0.48l0.35 2.44c-3.04,0.27 -1.66,0.13 -2.98,-2.49 -4.86,-9.69 -20.77,-7.06 -21.46,4.63 -0.77,12.97 17.49,17.64 22.42,3.68 4.35,1.14 3.73,1.5 8.95,1.46 3.52,-0.02 7.03,-0.05 10.55,-0.07 4.2,-0.02 4.61,-0.87 5.87,-4.44 2.46,-6.98 -1.21,-4.65 0.23,-7.85 0.42,0.4 0.31,0.36 0.72,0.81l0.63 0.67c0.03,-0.07 0.14,0.16 0.22,0.22 0.57,-3.25 2.62,-5.58 4.45,-6.68 0.98,1.13 1.58,2.67 2.04,4.24 -4.06,1.88 -6.83,8.74 -3.82,14.2 6.48,11.78 24.64,2.94 19.19,-9.46 -3.31,-7.52 -9.75,-6.22 -13.69,-6.01l-2.3 -5.5 4.18 0.9c0.15,-3.97 -2.32,-8.97 -4.39,-11.19 -1.35,0.48 -1.41,1.24 -2.83,2.13 -1.7,-1.54 -1.24,-2.15 -4.01,-3.41z"/>
  <path class="fil0" d="M25.31 48.92c-1.43,-2.16 -2.52,-3.33 -5.92,-3.48l5.92 3.48z"/>
  <g id="_2649066917472">
   <path class="fil1" d="M39.33 26.31c0.2,-0.47 1.87,-1.83 2.29,-2.4 0.55,-0.42 1.56,-1.69 2.01,-1.92 0.18,-0.35 0.63,-0.68 0.94,-0.99 0.25,-0.26 0.68,-0.74 0.92,-0.87 0.14,-0.25 1.3,-1.42 1.55,-1.54 0.08,-0.16 1.46,-1.63 1.76,-1.76 0.06,-0.13 3.22,-3.39 3.71,-3.77 0.39,0.17 0.71,0.74 0.94,1.05 7.72,10.59 0.35,25.52 -12.51,26.06 -2.42,0.1 -4.74,-0.33 -6.71,-1.1 -1.2,-0.46 -4.13,-2.02 -4.77,-2.92l2.46 -2.5c0.83,-0.84 7.05,-7.15 7.41,-7.34zm7.16 -10.58c-0.24,0.37 -1.5,1.61 -1.88,1.9 -0.19,0.25 -1.52,1.62 -1.75,1.69 -0.21,0.43 -0.72,0.81 -1.01,1.11 -0.36,0.36 -0.66,0.74 -1.08,1.01 -0.14,0.27 -2.48,2.61 -2.77,2.73 -0.17,0.44 -1.43,1.53 -1.76,1.87l-1.8 1.73c-0.05,0.11 -5.8,6.01 -6.62,6.68 -0.48,-0.22 -1.41,-1.7 -1.72,-2.24 -4.5,-7.7 -2.31,-16.91 4.62,-21.89 4.34,-3.12 10.35,-3.88 15.38,-1.89 0.92,0.36 1.79,0.79 2.58,1.28 0.52,0.31 1.91,1.22 2.2,1.67l-4.39 4.35zm-7.87 -10.65c-2.98,0.36 -4.86,0.84 -7.25,2.12 -2.39,1.28 -3.77,2.59 -5.22,4.13 -3.26,3.44 -5.07,8.87 -4.66,14 0.78,9.73 9.38,17.98 20.22,17.11 9.83,-0.78 17.95,-9.38 17.13,-20.26 -0.38,-5.12 -2.74,-9.15 -6.24,-12.44 -3.34,-3.15 -9.09,-5.27 -13.98,-4.66z"/>
   <path class="fil2" d="M39.62 29.13c1.6,-0.38 2.97,0.76 3.26,2.08 0.37,1.68 -0.74,3.03 -2.09,3.33 -3.53,0.79 -4.9,-4.53 -1.17,-5.41zm9.18 -12.3c1.27,0.53 3.06,2.03 4.02,2.98 0.64,0.62 0.03,1 -0.35,1.37 -1.03,1.01 -0.64,0.74 -2.66,-0.85 -0.71,-0.56 -1.9,-1.38 -2.77,-1.74 -0.25,0.12 -1.41,1.29 -1.55,1.54 1.61,0.73 2.9,1.54 4.16,2.76 0.68,0.66 0.08,1.05 -0.3,1.43 -0.62,0.61 -0.79,0.83 -1.38,0.25 -0.34,-0.33 -0.85,-0.74 -1.27,-1.04 -0.84,-0.61 -1.98,-1.2 -3.07,-1.54 -0.45,0.23 -1.46,1.5 -2.01,1.92 0.35,0.3 1.9,0.35 3.32,1.37 1.81,1.29 2,1.47 1.02,2.43 -0.45,0.45 -0.75,0.91 -1.42,0.3 -1.44,-1.33 -3.07,-1.91 -5.21,-1.7 -0.36,0.19 -6.58,6.5 -7.41,7.34l-2.46 2.5c0.64,0.9 3.57,2.46 4.77,2.92 1.97,0.77 4.29,1.2 6.71,1.1 12.86,-0.54 20.23,-15.47 12.51,-26.06 -0.23,-0.31 -0.55,-0.88 -0.94,-1.05 -0.49,0.38 -3.65,3.64 -3.71,3.77z"/>
   <path class="fil2" d="M34.44 27.77c-0.29,-0.28 -0.96,-0.76 -0.48,-1.34 0.22,-0.26 0.82,-0.7 1.13,-0.93 0.63,-0.47 1.96,-1.2 2.91,-1.33 0.29,-0.12 2.63,-2.46 2.77,-2.73 -2.44,-0.03 -4.63,0.49 -6.41,1.61 -0.48,0.3 -0.75,0.5 -1.16,0.81 -1.31,0.99 -1.07,1.59 -2.35,0.33 -0.76,-0.75 -0.71,-0.96 0.89,-2.22 1.15,-0.91 2.49,-1.67 3.92,-2.16 1.98,-0.67 5.02,-1.09 7.2,-0.49 0.23,-0.07 1.56,-1.44 1.75,-1.69 -2.05,-0.4 -3.29,-0.77 -5.64,-0.58 -3.57,0.29 -7.27,1.88 -9.69,4.35 -0.36,0.36 -0.66,0.52 -1.08,0.13 -0.21,-0.2 -0.59,-0.56 -0.77,-0.77 -0.41,-0.48 -0.11,-0.75 0.18,-1.03 1.93,-1.92 4.54,-3.63 7.99,-4.53 1.8,-0.47 3.67,-0.65 5.66,-0.55 2.89,0.14 3.35,0.69 5.23,1.08l4.39 -4.35c-0.29,-0.45 -1.68,-1.36 -2.2,-1.67 -0.79,-0.49 -1.66,-0.92 -2.58,-1.28 -5.03,-1.99 -11.04,-1.23 -15.38,1.89 -6.93,4.98 -9.12,14.19 -4.62,21.89 0.31,0.54 1.24,2.02 1.72,2.24 0.82,-0.67 6.57,-6.57 6.62,-6.68z"/>
   <path class="fil3" d="M44.61 17.63c0.38,-0.29 1.64,-1.53 1.88,-1.9 -1.88,-0.39 -2.34,-0.94 -5.23,-1.08 -1.99,-0.1 -3.86,0.08 -5.66,0.55 -3.45,0.9 -6.06,2.61 -7.99,4.53 -0.29,0.28 -0.59,0.55 -0.18,1.03 0.18,0.21 0.56,0.57 0.77,0.77 0.42,0.39 0.72,0.23 1.08,-0.13 2.42,-2.47 6.12,-4.06 9.69,-4.35 2.35,-0.19 3.59,0.18 5.64,0.58z"/>
   <path class="fil3" d="M40.77 21.44c0.42,-0.27 0.72,-0.65 1.08,-1.01 0.29,-0.3 0.8,-0.68 1.01,-1.11 -2.18,-0.6 -5.22,-0.18 -7.2,0.49 -1.43,0.49 -2.77,1.25 -3.92,2.16 -1.6,1.26 -1.65,1.47 -0.89,2.22 1.28,1.26 1.04,0.66 2.35,-0.33 0.41,-0.31 0.68,-0.51 1.16,-0.81 1.78,-1.12 3.97,-1.64 6.41,-1.61z"/>
   <path class="fil3" d="M39.62 29.13c-3.73,0.88 -2.36,6.2 1.17,5.41 1.35,-0.3 2.46,-1.65 2.09,-3.33 -0.29,-1.32 -1.66,-2.46 -3.26,-2.08z"/>
   <path class="fil3" d="M39.33 26.31c2.14,-0.21 3.77,0.37 5.21,1.7 0.67,0.61 0.97,0.15 1.42,-0.3 0.98,-0.96 0.79,-1.14 -1.02,-2.43 -1.42,-1.02 -2.97,-1.07 -3.32,-1.37 -0.42,0.57 -2.09,1.93 -2.29,2.4z"/>
   <path class="fil3" d="M43.63 21.99c1.09,0.34 2.23,0.93 3.07,1.54 0.42,0.3 0.93,0.71 1.27,1.04 0.59,0.58 0.76,0.36 1.38,-0.25 0.38,-0.38 0.98,-0.77 0.3,-1.43 -1.26,-1.22 -2.55,-2.03 -4.16,-2.76 -0.24,0.13 -0.67,0.61 -0.92,0.87 -0.31,0.31 -0.76,0.64 -0.94,0.99z"/>
   <path class="fil3" d="M47.04 18.59c0.87,0.36 2.06,1.18 2.77,1.74 2.02,1.59 1.63,1.86 2.66,0.85 0.38,-0.37 0.99,-0.75 0.35,-1.37 -0.96,-0.95 -2.75,-2.45 -4.02,-2.98 -0.3,0.13 -1.68,1.6 -1.76,1.76z"/>
   <path class="fil3" d="M34.44 27.77l1.8 -1.73c0.33,-0.34 1.59,-1.43 1.76,-1.87 -0.95,0.13 -2.28,0.86 -2.91,1.33 -0.31,0.23 -0.91,0.67 -1.13,0.93 -0.48,0.58 0.19,1.06 0.48,1.34z"/>
  </g>
 </g>
</svg>
