<?xml version="1.0" encoding="UTF-8"?>
<!DOCTYPE svg PUBLIC "-//W3C//DTD SVG 1.1//EN" "http://www.w3.org/Graphics/SVG/1.1/DTD/svg11.dtd">
<!-- Creator: CorelDRAW 2020 (64-Bit) -->
<svg xmlns="http://www.w3.org/2000/svg" xml:space="preserve" width="86px" height="68px" version="1.1" style="shape-rendering:geometricPrecision; text-rendering:geometricPrecision; image-rendering:optimizeQuality; fill-rule:evenodd; clip-rule:evenodd"
viewBox="0 0 86 68"
 xmlns:xlink="http://www.w3.org/1999/xlink"
 xmlns:xodm="http://www.corel.com/coreldraw/odm/2003">
 <defs>
  <style type="text/css">
   <![CDATA[
    .str0 {stroke:#373435;stroke-width:1.25;stroke-miterlimit:22.9256}
    .str1 {stroke:#373435;stroke-width:2.36;stroke-miterlimit:22.9256}
    .fil1 {fill:#FFF212}
    .fil0 {fill:#00A859}
   ]]>
  </style>
 </defs>
 <g id="Capa_x0020_1">
  <metadata id="CorelCorpID_0Corel-Layer"/>
  <path class="fil0" d="M26.6 55.51c-1.45,4.79 -7.41,8.21 -12.43,4.43 -4.68,-3.52 -4.48,-10.15 0.2,-13.15l-0.34 1.87 2.45 1.22c-5.91,7.8 6,10.61 6.36,3.52 1.5,0.59 2.81,1.03 3.76,2.11zm40.28 -9.04c10.4,-1.95 12.92,10.81 5.36,14.11 -5.84,2.56 -12.03,-2.69 -10.46,-8.83 0.55,-2.17 1.73,-2.89 2.9,-4.28 1.02,0.82 1.12,1.53 1.66,2.78 -0.77,1.88 -2.27,3.54 -0.6,5.87 4.34,6.02 13.35,-5.01 2.32,-6.66l-1.18 -2.99zm-47.49 -1.03c3.4,0.15 4.49,1.32 5.92,3.48l-5.92 -3.48zm36.48 -19.08c-0.34,-4.75 1.47,-6.78 -2.16,-7.3l-0.44 3.78 1.86 0.3 -0.32 3.83c-1.8,0.61 -1.71,-0.18 -2.77,1.02 0.99,1.29 1.25,0.64 2.58,1.62 0.79,0.59 1.28,1.28 1.48,2.02 -2.21,0.91 -7.58,-2.9 -11.42,-1.87 -5.69,1.52 -6.34,4.47 -7.54,7 -14.54,-2.15 -10.32,-1.31 -12.7,-4.9l-14.6 -1.84 2.91 3.84c-1.38,0.42 -3.27,0.69 -4.23,1.42l1.78 0.8c-1.17,1.72 -2.66,3.76 -3.71,5.55 9.16,-9.67 7.9,-8.01 14.72,-3.81 2.85,1.75 5.22,3.15 8.06,4.9 2.83,1.74 5.3,2.31 6.49,5.84 -2.25,0.27 -2.34,-0.08 -4.31,-0.48l0.35 2.44c-3.04,0.27 -1.66,0.13 -2.98,-2.49 -4.86,-9.69 -20.77,-7.06 -21.46,4.63 -0.77,12.97 17.49,17.64 22.42,3.68 4.35,1.14 3.73,1.5 8.95,1.46 3.52,-0.02 7.03,-0.05 10.55,-0.07 4.2,-0.02 4.61,-0.87 5.87,-4.44 2.46,-6.98 -1.21,-4.65 0.23,-7.85 0.42,0.4 0.31,0.36 0.72,0.81l0.63 0.67c0.03,-0.07 0.14,0.16 0.22,0.22 0.57,-3.25 2.62,-5.58 4.45,-6.68 0.98,1.13 1.58,2.67 2.04,4.24 -4.06,1.88 -6.83,8.74 -3.82,14.2 6.48,11.78 24.64,2.94 19.19,-9.46 -3.31,-7.52 -9.75,-6.22 -13.69,-6.01l-2.3 -5.5 4.18 0.9c0.15,-3.97 -2.32,-8.97 -4.39,-11.19 -1.35,0.48 -1.41,1.24 -2.83,2.13 -1.7,-1.54 -1.24,-2.15 -4.01,-3.41z"/>
  <path class="fil0" d="M25.31 48.92c-1.43,-2.16 -2.52,-3.33 -5.92,-3.48l5.92 3.48z"/>
  <ellipse class="fil1 str0" cx="28.83" cy="18.85" rx="16.76" ry="15.27"/>
  <rect class="fil1 str1" x="23.25" y="9.67" width="2.34" height="17.73"/>
  <rect class="fil1 str1" x="31.82" y="9.67" width="2.34" height="17.73"/>
 </g>
</svg>
