<?xml version="1.0" encoding="UTF-8"?>
<!DOCTYPE svg PUBLIC "-//W3C//DTD SVG 1.1//EN" "http://www.w3.org/Graphics/SVG/1.1/DTD/svg11.dtd">
<!-- Creator: CorelDRAW 2020 (64-Bit) -->
<svg xmlns="http://www.w3.org/2000/svg" xml:space="preserve" width="86px" height="68px" version="1.1" style="shape-rendering:geometricPrecision; text-rendering:geometricPrecision; image-rendering:optimizeQuality; fill-rule:evenodd; clip-rule:evenodd"
viewBox="0 0 86 68"
 xmlns:xlink="http://www.w3.org/1999/xlink"
 xmlns:xodm="http://www.corel.com/coreldraw/odm/2003">
 <defs>
  <style type="text/css">
   <![CDATA[
    .str0 {stroke:#373435;stroke-width:1.25;stroke-miterlimit:22.9256}
    .str1 {stroke:#373435;stroke-width:2.36;stroke-miterlimit:22.9256}
    .fil2 {fill:#373435}
    .fil0 {fill:#ED3237}
    .fil1 {fill:#FEFEFE}
   ]]>
  </style>
 </defs>
 <g id="Capa_x0020_1">
  <metadata id="CorelCorpID_0Corel-Layer"/>
  <path class="fil0" d="M6.02 51.54c-0.37,-0.43 -0.54,0.02 -0.59,-1.93l0.02 -5.92c1.9,1.1 1.36,1.44 1.35,3.98 0,1.67 0.48,3.07 -0.78,3.87zm75.42 0.53c-1.44,-0.24 -2.61,-0.24 -3.4,-1.2l-1.76 -2.35c2.73,0.63 4.52,0.98 5.16,3.55zm-72.69 -15.63l41.86 0.12 0.67 10.55c-9.17,0.59 -25.45,-0.04 -36.11,0.07 -3.07,0.03 -2.78,0.04 -4.41,-1.58 -2.37,-2.38 -2.4,-1.78 -2.48,-4.82l0.47 -4.34zm63.31 11.1c-19.33,-0.42 -17.99,-1.92 -18.46,-11.12 2.44,0.04 4.95,-0.11 6.91,1.03 1.21,0.69 10.95,8.81 11.55,10.09zm-68.83 -9.82l0.01 16.19 80.55 -0.06c-0.02,-7.94 -5.72,-4.94 -11.69,-10.41 -1.32,-1.21 -1.78,-1.52 -2.88,-2.48 -11.91,-10.38 -10.27,-10.35 -28.45,-10.35l-33.99 -0.01c-3.33,0 -3.55,3.83 -3.55,7.12z"/>
  <path class="fil0" d="M48.87 44.94l-0.34 -6.09 -37.92 -0.16c0,2.75 -0.47,2.98 1.02,4.51 1.34,1.37 1.32,1.74 3.91,1.74l33.33 0z"/>
  <path class="fil1" d="M15.54 44.94c-2.59,0 -2.57,-0.37 -3.91,-1.74 -1.49,-1.53 -1.02,-1.76 -1.02,-4.51l37.92 0.16 0.34 6.09 -33.33 0zm-7.26 -4.16c0.08,3.04 0.11,2.44 2.48,4.82 1.63,1.62 1.34,1.61 4.41,1.58 10.66,-0.11 26.94,0.52 36.11,-0.07l-0.67 -10.55 -41.86 -0.12 -0.47 4.34z"/>
  <path class="fil0" d="M26.34 61.7l37.26 -0.01c0.49,-3.15 0.28,-2.8 1.48,-5.49l-40.16 0.02c1.05,2.42 1.13,2.33 1.42,5.48z"/>
  <path class="fil1" d="M72.06 47.54c-0.6,-1.28 -10.34,-9.4 -11.55,-10.09 -1.96,-1.14 -4.47,-0.99 -6.91,-1.03 0.47,9.2 -0.87,10.7 18.46,11.12z"/>
  <path class="fil2" d="M16.53 62.76c-1.02,-2.91 -0.52,-4.89 3.32,-4.34l1.02 1.02c0.6,3.79 -1.63,4.31 -4.34,3.32zm0.22 -7.16c-6.65,2.38 -3.66,12.46 3.39,10.44 2.43,-0.69 4.66,-3.68 3.58,-7.03 -0.78,-2.44 -3.45,-4.67 -6.97,-3.41z"/>
  <path class="fil2" d="M73.89 61.85c-0.79,0.83 -1.54,1.8 -3.16,1.34 -1.32,-0.37 -2.04,-1.63 -1.7,-3.19 0.55,-2.49 5.52,-3.04 4.86,1.85zm-4.12 -6.28c-6.94,2.2 -3.5,12.79 3.69,10.35 6.29,-2.13 3.52,-12.64 -3.69,-10.35z"/>
  <path class="fil0" d="M2.49 56.18l-0.41 1.81 0.06 1.16 0.11 1.41 8.52 1.07c0,-3.01 0.4,-3.26 1.33,-5.48l-9.61 0.03z"/>
  <path class="fil0" d="M79.23 61.58c3.93,-0.43 5.75,-1.25 5.43,-5.42l-6.74 0.01c0.88,2.41 1.28,2.28 1.31,5.41z"/>
  <path class="fil1" d="M73.89 61.85c0.66,-4.89 -4.31,-4.34 -4.86,-1.85 -0.34,1.56 0.38,2.82 1.7,3.19 1.62,0.46 2.37,-0.51 3.16,-1.34z"/>
  <path class="fil1" d="M16.53 62.76c2.71,0.99 4.94,0.47 4.34,-3.32l-1.02 -1.02c-3.84,-0.55 -4.34,1.43 -3.32,4.34z"/>
  <path class="fil1" d="M6.02 51.54c1.26,-0.8 0.78,-2.2 0.78,-3.87 0.01,-2.54 0.55,-2.88 -1.35,-3.98l-0.02 5.92c0.05,1.95 0.22,1.5 0.59,1.93z"/>
  <path class="fil1" d="M81.44 52.07c-0.64,-2.57 -2.43,-2.92 -5.16,-3.55l1.76 2.35c0.79,0.96 1.96,0.96 3.4,1.2z"/>
  <ellipse class="fil0 str0" cx="29.02" cy="19.46" rx="16.76" ry="15.27"/>
  <rect class="fil2 str1" x="23.17" y="13.12" width="11.64" height="12.71"/>
 </g>
</svg>
