<?xml version="1.0" encoding="UTF-8"?>
<!DOCTYPE svg PUBLIC "-//W3C//DTD SVG 1.1//EN" "http://www.w3.org/Graphics/SVG/1.1/DTD/svg11.dtd">
<!-- Creator: CorelDRAW 2020 (64-Bit) -->
<svg xmlns="http://www.w3.org/2000/svg" xml:space="preserve" width="86px" height="68px" version="1.1" style="shape-rendering:geometricPrecision; text-rendering:geometricPrecision; image-rendering:optimizeQuality; fill-rule:evenodd; clip-rule:evenodd"
viewBox="0 0 86 68"
 xmlns:xlink="http://www.w3.org/1999/xlink"
 xmlns:xodm="http://www.corel.com/coreldraw/odm/2003">
 <defs>
  <style type="text/css">
   <![CDATA[
    .fil1 {fill:#FEFEFE}
    .fil0 {fill:#BDBFC1}
    .fil3 {fill:#1D1D1B}
    .fil5 {fill:#D30802}
    .fil2 {fill:#FA0C00}
    .fil4 {fill:white}
   ]]>
  </style>
 </defs>
 <g id="Capa_x0020_1">
  <metadata id="CorelCorpID_0Corel-Layer"/>
  <path class="fil0" d="M6.34 51.44c-0.37,-0.42 -0.54,0.03 -0.59,-1.93l0.02 -5.91c1.9,1.09 1.36,1.44 1.35,3.98 0,1.67 0.48,3.06 -0.78,3.86zm75.42 0.53c-1.44,-0.23 -2.61,-0.23 -3.4,-1.19l-1.76 -2.36c2.73,0.64 4.52,0.99 5.16,3.55zm-72.69 -15.62l41.86 0.12 0.67 10.55c-9.17,0.59 -25.45,-0.04 -36.11,0.07 -3.07,0.03 -2.78,0.04 -4.41,-1.59 -2.37,-2.37 -2.4,-1.77 -2.48,-4.82l0.47 -4.33zm63.31 11.1c-19.33,-0.42 -17.99,-1.93 -18.46,-11.12 2.44,0.04 4.95,-0.11 6.91,1.02 1.21,0.7 10.95,8.82 11.55,10.1zm-68.83 -9.82l0.01 16.19 80.55 -0.06c-0.02,-7.94 -5.72,-4.95 -11.69,-10.42 -1.32,-1.21 -1.78,-1.52 -2.88,-2.47 -11.91,-10.39 -10.27,-10.36 -28.45,-10.36l-33.99 -0.01c-3.33,0 -3.55,3.84 -3.55,7.13z"/>
  <path class="fil0" d="M49.19 44.84l-0.34 -6.08 -37.92 -0.16c0,2.75 -0.47,2.97 1.02,4.51 1.34,1.37 1.32,1.74 3.91,1.74l33.33 -0.01z"/>
  <path class="fil1" d="M15.86 44.85c-2.59,0 -2.57,-0.37 -3.91,-1.74 -1.49,-1.54 -1.02,-1.76 -1.02,-4.51l37.92 0.16 0.34 6.08 -33.33 0.01zm-7.26 -4.17c0.08,3.05 0.11,2.45 2.48,4.82 1.63,1.63 1.34,1.62 4.41,1.59 10.66,-0.11 26.94,0.52 36.11,-0.07l-0.67 -10.55 -41.86 -0.12 -0.47 4.33z"/>
  <path class="fil0" d="M26.66 61.61l37.26 -0.01c0.49,-3.15 0.28,-2.8 1.48,-5.49l-40.16 0.02c1.05,2.42 1.13,2.33 1.42,5.48z"/>
  <path class="fil1" d="M72.38 47.45c-0.6,-1.28 -10.34,-9.4 -11.55,-10.1 -1.96,-1.13 -4.47,-0.98 -6.91,-1.02 0.47,9.19 -0.87,10.7 18.46,11.12z"/>
  <path class="fil0" d="M16.85 62.66c-1.02,-2.9 -0.52,-4.88 3.32,-4.33l1.02 1.01c0.6,3.79 -1.63,4.31 -4.34,3.32zm0.22 -7.15c-6.65,2.38 -3.66,12.46 3.39,10.44 2.43,-0.69 4.66,-3.69 3.58,-7.03 -0.78,-2.44 -3.45,-4.67 -6.97,-3.41z"/>
  <path class="fil0" d="M74.21 61.75c-0.79,0.83 -1.54,1.81 -3.16,1.35 -1.32,-0.37 -2.04,-1.63 -1.7,-3.19 0.55,-2.5 5.52,-3.04 4.86,1.84zm-4.12 -6.27c-6.94,2.2 -3.5,12.79 3.69,10.35 6.29,-2.14 3.52,-12.65 -3.69,-10.35z"/>
  <path class="fil0" d="M2.81 56.09l-0.41 1.81 0.06 1.16 0.11 1.4 8.52 1.08c0,-3.01 0.4,-3.26 1.33,-5.48l-9.61 0.03z"/>
  <path class="fil0" d="M79.55 61.49c3.93,-0.43 5.75,-1.25 5.43,-5.42l-6.74 0c0.88,2.42 1.28,2.29 1.31,5.42z"/>
  <path class="fil1" d="M74.21 61.75c0.66,-4.88 -4.31,-4.34 -4.86,-1.84 -0.34,1.56 0.38,2.82 1.7,3.19 1.62,0.46 2.37,-0.52 3.16,-1.35z"/>
  <path class="fil1" d="M16.85 62.66c2.71,0.99 4.94,0.47 4.34,-3.32l-1.02 -1.01c-3.84,-0.55 -4.34,1.43 -3.32,4.33z"/>
  <path class="fil1" d="M6.34 51.44c1.26,-0.8 0.78,-2.19 0.78,-3.86 0.01,-2.54 0.55,-2.89 -1.35,-3.98l-0.02 5.91c0.05,1.96 0.22,1.51 0.59,1.93z"/>
  <path class="fil1" d="M81.76 51.97c-0.64,-2.56 -2.43,-2.91 -5.16,-3.55l1.76 2.36c0.79,0.96 1.96,0.96 3.4,1.19z"/>
  <g id="_2648972624496">
   <path class="fil2" d="M43.63 30.63c-0.34,2.07 -1.81,3.01 -4.17,2.7 -2.07,-0.26 -3.08,-1.95 -2.74,-4.23 0.63,-4.12 7.76,-3.68 6.91,1.53zm0.85 0.38l1.9 -0.09c0.3,0.54 0.18,0.9 0.89,1.08 0.8,0.19 1.2,-0.11 1.24,-0.81 -0.5,-0.83 -1.93,-0.75 -2.75,-1.2 -1.87,-1.01 -1.46,-3.99 2.45,-3.57 1.28,0.14 2.01,0.69 2.13,1.98l-1.85 0.11c-0.24,-0.33 -0.71,-1.33 -1.61,-0.74 -1.84,1.2 4.13,0.48 3.67,3.66 -0.37,2.56 -5.91,2.94 -6.07,-0.42zm-14.7 0.01l1.93 -0.12c0.18,0.66 0.24,1.03 0.96,1.13 0.87,0.12 1.18,-0.2 1.11,-1.02 -0.71,-0.55 -1.95,-0.56 -2.83,-1.06 -1.73,-1.01 -1.29,-3.95 2.54,-3.54 1.33,0.15 2.01,0.67 2.13,2l-1.85 0.1c-0.21,-0.32 -0.22,-0.55 -0.53,-0.72 -0.76,-0.44 -2.73,0.37 0.08,1.05 1.47,0.36 2.77,0.89 2.53,2.6 -0.35,2.54 -5.92,2.93 -6.07,-0.42zm-3.17 7.93l27.42 0 0.08 -0.55c0,-3.11 -0.01,-6.21 0,-9.31 0.01,-7.98 -5.93,-14.39 -14.03,-14.21 -5.46,0.12 -9.83,3.43 -11.7,6.99 -1.34,2.56 -1.78,4.24 -1.77,7.64 0,3.14 -0.01,6.29 0,9.44z"/>
   <path class="fil3" d="M54.14 39.53l-27.57 0.01c-2.41,0.04 -2.9,1.77 -2.77,3.71 0.04,0.53 -0.06,0.34 0.18,0.68 0.56,0.47 6.78,0.22 8.11,0.22 3.91,0 23.79,0.26 24.78,-0.22 0.25,-2.62 -0.16,-4.24 -2.73,-4.4z"/>
   <path class="fil4" d="M39.7 28.09c2.16,-0.89 2.41,2.99 1.13,3.58 -1.12,0.51 -1.9,-0.22 -2.03,-1.19 -0.15,-1.1 -0.03,-2.01 0.9,-2.39zm3.93 2.54c0.85,-5.21 -6.28,-5.65 -6.91,-1.53 -0.34,2.28 0.67,3.97 2.74,4.23 2.36,0.31 3.83,-0.63 4.17,-2.7z"/>
   <path class="fil4" d="M29.78 31.02c0.15,3.35 5.72,2.96 6.07,0.42 0.24,-1.71 -1.06,-2.24 -2.53,-2.6 -2.81,-0.68 -0.84,-1.49 -0.08,-1.05 0.31,0.17 0.32,0.4 0.53,0.72l1.85 -0.1c-0.12,-1.33 -0.8,-1.85 -2.13,-2 -3.83,-0.41 -4.27,2.53 -2.54,3.54 0.88,0.5 2.12,0.51 2.83,1.06 0.07,0.82 -0.24,1.14 -1.11,1.02 -0.72,-0.1 -0.78,-0.47 -0.96,-1.13l-1.93 0.12z"/>
   <path class="fil4" d="M44.48 31.01c0.16,3.36 5.7,2.98 6.07,0.42 0.46,-3.18 -5.51,-2.46 -3.67,-3.66 0.9,-0.59 1.37,0.41 1.61,0.74l1.85 -0.11c-0.12,-1.29 -0.85,-1.84 -2.13,-1.98 -3.91,-0.42 -4.32,2.56 -2.45,3.57 0.82,0.45 2.25,0.37 2.75,1.2 -0.04,0.7 -0.44,1 -1.24,0.81 -0.71,-0.18 -0.59,-0.54 -0.89,-1.08l-1.9 0.09z"/>
   <path class="fil2" d="M60.64 30.7c-0.84,0.18 -1.48,1.08 -0.94,2.01 0.47,0.8 1.43,0.67 2.52,0.67 1.49,0 5.31,0.19 6.52,-0.03 0.8,-0.15 1.5,-1.03 0.93,-2.05 -0.43,-0.77 -1.44,-0.65 -2.55,-0.65 -1.35,0 -5.49,-0.17 -6.48,0.05z"/>
   <path class="fil2" d="M11.72 30.26c-0.89,0.35 -1.18,1.5 -0.52,2.2 0.55,0.58 1.85,0.41 2.82,0.41 1.06,0 5.68,0.14 6.34,-0.1 0.79,-0.3 1.18,-1.39 0.53,-2.15 -0.58,-0.67 -1.85,-0.47 -2.81,-0.47 -1.16,0 -5.64,-0.18 -6.36,0.11z"/>
   <path class="fil2" d="M41.98 11.01l0 -7.15c0,-1.75 -1.81,-2.08 -2.49,-1.01 -0.39,0.61 -0.39,8.48 -0.06,9.08 0.65,1.16 2.55,0.84 2.55,-0.92z"/>
   <path class="fil2" d="M54.29 6.24c-0.96,0.37 -1.21,1.29 -1.76,2.23l-2.92 5.07c-0.46,1.11 0.48,2.3 1.71,1.85 0.73,-0.27 1.25,-1.52 1.67,-2.27 0.46,-0.84 0.96,-1.69 1.49,-2.57 0.34,-0.59 1.2,-1.92 1.42,-2.5 0.44,-1.14 -0.58,-2.2 -1.61,-1.81z"/>
   <path class="fil2" d="M15.43 16.34c-1.04,0.63 -0.85,1.81 0.11,2.39l4.98 2.87c0.7,0.4 1.91,1.39 2.87,0.88 1.04,-0.56 0.83,-1.85 -0.07,-2.42l-4.97 -2.87c-0.73,-0.43 -1.92,-1.46 -2.92,-0.85z"/>
   <path class="fil2" d="M25.86 6.15c-0.06,0.04 -0.84,0.15 -0.67,1.35 0.06,0.48 0.42,0.93 0.66,1.35l2.87 4.97c0.43,0.76 1.07,1.96 2.34,1.19 1.5,-0.91 -0.39,-3.21 -1.47,-5.14 -0.48,-0.85 -0.97,-1.64 -1.44,-2.48 -0.41,-0.75 -1.02,-2.03 -2.29,-1.24z"/>
   <path class="fil2" d="M64.3 16.7l-5.02 2.86c-0.69,0.42 -2.01,0.96 -2.28,1.64 -0.45,1.15 0.57,2.18 1.77,1.77l4.99 -2.85c0.69,-0.4 2.05,-0.95 2.33,-1.61 0.52,-1.26 -0.66,-2.33 -1.79,-1.81z"/>
   <polygon class="fil5" points="26.61,38.95 26.57,39.54 54.14,39.53 54.11,38.4 54.03,38.95 "/>
   <path class="fil2" d="M39.7 28.09c-0.93,0.38 -1.05,1.29 -0.9,2.39 0.13,0.97 0.91,1.7 2.03,1.19 1.28,-0.59 1.03,-4.47 -1.13,-3.58z"/>
  </g>
 </g>
</svg>
